<?xml version="1.0" standalone="no"?>
<!DOCTYPE svg PUBLIC "-//W3C//DTD SVG 20010904//EN"
 "http://www.w3.org/TR/2001/REC-SVG-20010904/DTD/svg10.dtd">
<svg version="1.0" xmlns="http://www.w3.org/2000/svg"
 width="1280.000000pt" height="1226.000000pt" viewBox="0 0 1280.000000 1226.000000"
 preserveAspectRatio="xMidYMid meet">
<metadata>
Created by potrace 1.15, written by Peter Selinger 2001-2017
</metadata>
<g transform="translate(0.000000,1226.000000) scale(0.100000,-0.100000)"
fill="#000000" stroke="none">
<path d="M9505 12249 c-217 -31 -426 -134 -588 -288 -132 -126 -218 -259 -276
-424 -118 -339 -59 -717 160 -1006 279 -371 772 -519 1211 -366 399 140 681
502 716 921 27 327 -83 631 -313 859 -239 238 -580 352 -910 304z"/>
<path d="M5795 10390 c-235 -6 -266 -14 -381 -89 -72 -46 -14 19 -1062 -1188
-473 -545 -881 -1012 -905 -1038 -89 -93 -139 -223 -140 -364 0 -188 86 -350
244 -455 82 -54 159 -78 269 -83 138 -7 245 24 356 105 22 16 429 478 903
1026 l862 996 486 0 485 0 -54 -62 c-30 -35 -848 -983 -1817 -2108 -970 -1125
-1779 -2061 -1797 -2080 l-34 -35 -1323 0 c-1222 0 -1326 -1 -1377 -17 -262
-82 -447 -282 -496 -535 -29 -155 -10 -291 63 -443 38 -80 59 -109 132 -181
73 -73 101 -93 181 -132 52 -25 120 -51 150 -59 77 -18 3219 -18 3352 0 181
26 336 80 462 162 57 38 156 143 625 665 306 341 637 710 737 821 l180 201
680 -660 c373 -362 748 -727 832 -809 l154 -150 -61 -271 c-33 -150 -98 -441
-145 -647 -515 -2281 -486 -2147 -486 -2262 0 -155 33 -265 116 -390 122 -184
353 -308 573 -308 74 0 190 22 259 49 182 72 346 248 405 436 9 28 61 250 116
495 55 245 154 687 220 983 312 1389 364 1621 426 1897 36 162 80 351 97 420
29 112 32 140 32 275 1 175 -17 256 -87 390 -40 77 -74 112 -799 840 l-758
761 794 919 c437 506 799 921 804 923 5 1 239 -232 521 -518 542 -549 593
-594 722 -640 89 -31 233 -38 319 -16 94 24 174 64 265 134 48 37 424 408 945
934 797 805 868 878 898 941 155 318 2 678 -338 793 -40 14 -84 19 -160 19
-119 0 -200 -22 -287 -78 -28 -18 -364 -343 -753 -730 l-703 -699 -856 855
c-471 470 -876 868 -901 884 -69 46 -141 80 -222 105 l-73 22 -1220 1 c-671 1
-1314 -1 -1430 -5z"/>
</g>
</svg>
